<?xml version="1.0" encoding="UTF-8" standalone="no"?>
<!DOCTYPE svg PUBLIC "-//W3C//DTD SVG 1.1//EN"
 "http://www.w3.org/Graphics/SVG/1.1/DTD/svg11.dtd">
<!-- Generated by graphviz version 2.43.0 (0)
 -->
<!-- Title: ERD Pages: 1 -->
<svg width="1435pt" height="1078pt"
 viewBox="0.00 0.00 1435.00 1077.50" xmlns="http://www.w3.org/2000/svg" xmlns:xlink="http://www.w3.org/1999/xlink">
<g id="graph0" class="graph" transform="scale(1 1) rotate(0) translate(4 1073.5)">
<title>ERD</title>
<polygon fill="white" stroke="transparent" points="-4,4 -4,-1073.5 1431,-1073.5 1431,4 -4,4"/>
<text text-anchor="middle" x="713.5" y="-1049.5" font-family="Helvetica,sans-Serif" font-size="20.00">Accessories Store — MVP Database Schema</text>
<!-- categories -->
<g id="node1" class="node">
<title>categories</title>
<polygon fill="#1d9e75" stroke="transparent" points="8.5,-924.5 8.5,-953.5 305.5,-953.5 305.5,-924.5 8.5,-924.5"/>
<polygon fill="none" stroke="black" points="8.5,-924.5 8.5,-953.5 305.5,-953.5 305.5,-924.5 8.5,-924.5"/>
<text text-anchor="start" x="115" y="-936.3" font-family="Helvetica,sans-Serif" font-weight="bold" font-size="14.00" fill="white">categories</text>
<polygon fill="#e1f5ee" stroke="transparent" points="8.5,-895.5 8.5,-924.5 44.5,-924.5 44.5,-895.5 8.5,-895.5"/>
<polygon fill="none" stroke="black" points="8.5,-895.5 8.5,-924.5 44.5,-924.5 44.5,-895.5 8.5,-895.5"/>
<text text-anchor="start" x="15.5" y="-907.3" font-family="Helvetica,sans-Serif" font-weight="bold" font-size="14.00">PK</text>
<polygon fill="#e1f5ee" stroke="transparent" points="44.5,-895.5 44.5,-924.5 137.5,-924.5 137.5,-895.5 44.5,-895.5"/>
<polygon fill="none" stroke="black" points="44.5,-895.5 44.5,-924.5 137.5,-924.5 137.5,-895.5 44.5,-895.5"/>
<text text-anchor="start" x="51.5" y="-906.3" font-family="Helvetica,sans-Serif" font-size="14.00">id</text>
<polygon fill="#e1f5ee" stroke="transparent" points="137.5,-895.5 137.5,-924.5 305.5,-924.5 305.5,-895.5 137.5,-895.5"/>
<polygon fill="none" stroke="black" points="137.5,-895.5 137.5,-924.5 305.5,-924.5 305.5,-895.5 137.5,-895.5"/>
<text text-anchor="start" x="144.5" y="-906.3" font-family="Helvetica,sans-Serif" font-size="14.00" fill="#0f6e56">integer</text>
<polygon fill="none" stroke="black" points="8.5,-866.5 8.5,-895.5 44.5,-895.5 44.5,-866.5 8.5,-866.5"/>
<polygon fill="none" stroke="black" points="44.5,-866.5 44.5,-895.5 137.5,-895.5 137.5,-866.5 44.5,-866.5"/>
<text text-anchor="start" x="51.5" y="-877.3" font-family="Helvetica,sans-Serif" font-size="14.00">name</text>
<polygon fill="none" stroke="black" points="137.5,-866.5 137.5,-895.5 305.5,-895.5 305.5,-866.5 137.5,-866.5"/>
<text text-anchor="start" x="144.5" y="-877.3" font-family="Helvetica,sans-Serif" font-size="14.00" fill="#5f5e5a">text NOT NULL</text>
<polygon fill="none" stroke="black" points="8.5,-837.5 8.5,-866.5 44.5,-866.5 44.5,-837.5 8.5,-837.5"/>
<text text-anchor="start" x="15.5" y="-849.3" font-family="Helvetica,sans-Serif" font-weight="bold" font-size="14.00">UK</text>
<polygon fill="none" stroke="black" points="44.5,-837.5 44.5,-866.5 137.5,-866.5 137.5,-837.5 44.5,-837.5"/>
<text text-anchor="start" x="51.5" y="-848.3" font-family="Helvetica,sans-Serif" font-size="14.00">slug</text>
<polygon fill="none" stroke="black" points="137.5,-837.5 137.5,-866.5 305.5,-866.5 305.5,-837.5 137.5,-837.5"/>
<text text-anchor="start" x="144.5" y="-848.3" font-family="Helvetica,sans-Serif" font-size="14.00" fill="#5f5e5a">text NOT NULL</text>
<polygon fill="none" stroke="black" points="8.5,-808.5 8.5,-837.5 44.5,-837.5 44.5,-808.5 8.5,-808.5"/>
<polygon fill="none" stroke="black" points="44.5,-808.5 44.5,-837.5 137.5,-837.5 137.5,-808.5 44.5,-808.5"/>
<text text-anchor="start" x="51.5" y="-819.3" font-family="Helvetica,sans-Serif" font-size="14.00">description</text>
<polygon fill="none" stroke="black" points="137.5,-808.5 137.5,-837.5 305.5,-837.5 305.5,-808.5 137.5,-808.5"/>
<text text-anchor="start" x="144.5" y="-819.3" font-family="Helvetica,sans-Serif" font-size="14.00" fill="#5f5e5a">text NULL</text>
<polygon fill="none" stroke="black" points="8.5,-779.5 8.5,-808.5 44.5,-808.5 44.5,-779.5 8.5,-779.5"/>
<polygon fill="none" stroke="black" points="44.5,-779.5 44.5,-808.5 137.5,-808.5 137.5,-779.5 44.5,-779.5"/>
<text text-anchor="start" x="51.5" y="-790.3" font-family="Helvetica,sans-Serif" font-size="14.00">is_active</text>
<polygon fill="none" stroke="black" points="137.5,-779.5 137.5,-808.5 305.5,-808.5 305.5,-779.5 137.5,-779.5"/>
<text text-anchor="start" x="144.5" y="-790.3" font-family="Helvetica,sans-Serif" font-size="14.00" fill="#5f5e5a">boolean DEFAULT true</text>
<polygon fill="none" stroke="black" points="8.5,-750.5 8.5,-779.5 44.5,-779.5 44.5,-750.5 8.5,-750.5"/>
<polygon fill="none" stroke="black" points="44.5,-750.5 44.5,-779.5 137.5,-779.5 137.5,-750.5 44.5,-750.5"/>
<text text-anchor="start" x="51.5" y="-761.3" font-family="Helvetica,sans-Serif" font-size="14.00">created_at</text>
<polygon fill="none" stroke="black" points="137.5,-750.5 137.5,-779.5 305.5,-779.5 305.5,-750.5 137.5,-750.5"/>
<text text-anchor="start" x="144.5" y="-761.3" font-family="Helvetica,sans-Serif" font-size="14.00" fill="#5f5e5a">timestamptz</text>
<polygon fill="none" stroke="black" points="8.5,-721.5 8.5,-750.5 44.5,-750.5 44.5,-721.5 8.5,-721.5"/>
<polygon fill="none" stroke="black" points="44.5,-721.5 44.5,-750.5 137.5,-750.5 137.5,-721.5 44.5,-721.5"/>
<text text-anchor="start" x="51.5" y="-732.3" font-family="Helvetica,sans-Serif" font-size="14.00">updated_at</text>
<polygon fill="none" stroke="black" points="137.5,-721.5 137.5,-750.5 305.5,-750.5 305.5,-721.5 137.5,-721.5"/>
<text text-anchor="start" x="144.5" y="-732.3" font-family="Helvetica,sans-Serif" font-size="14.00" fill="#5f5e5a">timestamptz</text>
</g>
<!-- products -->
<g id="node2" class="node">
<title>products</title>
<polygon fill="#534ab7" stroke="transparent" points="505.5,-953.5 505.5,-982.5 853.5,-982.5 853.5,-953.5 505.5,-953.5"/>
<polygon fill="none" stroke="black" points="505.5,-953.5 505.5,-982.5 853.5,-982.5 853.5,-953.5 505.5,-953.5"/>
<text text-anchor="start" x="644.5" y="-965.3" font-family="Helvetica,sans-Serif" font-weight="bold" font-size="14.00" fill="white">products</text>
<polygon fill="#eeedfe" stroke="transparent" points="505.5,-924.5 505.5,-953.5 541.5,-953.5 541.5,-924.5 505.5,-924.5"/>
<polygon fill="none" stroke="black" points="505.5,-924.5 505.5,-953.5 541.5,-953.5 541.5,-924.5 505.5,-924.5"/>
<text text-anchor="start" x="512.5" y="-936.3" font-family="Helvetica,sans-Serif" font-weight="bold" font-size="14.00">PK</text>
<polygon fill="#eeedfe" stroke="transparent" points="541.5,-924.5 541.5,-953.5 657.5,-953.5 657.5,-924.5 541.5,-924.5"/>
<polygon fill="none" stroke="black" points="541.5,-924.5 541.5,-953.5 657.5,-953.5 657.5,-924.5 541.5,-924.5"/>
<text text-anchor="start" x="548.5" y="-935.3" font-family="Helvetica,sans-Serif" font-size="14.00">id</text>
<polygon fill="#eeedfe" stroke="transparent" points="657.5,-924.5 657.5,-953.5 853.5,-953.5 853.5,-924.5 657.5,-924.5"/>
<polygon fill="none" stroke="black" points="657.5,-924.5 657.5,-953.5 853.5,-953.5 853.5,-924.5 657.5,-924.5"/>
<text text-anchor="start" x="664.5" y="-935.3" font-family="Helvetica,sans-Serif" font-size="14.00" fill="#3c3489">integer</text>
<polygon fill="#eeedfe" stroke="transparent" points="505.5,-895.5 505.5,-924.5 541.5,-924.5 541.5,-895.5 505.5,-895.5"/>
<polygon fill="none" stroke="black" points="505.5,-895.5 505.5,-924.5 541.5,-924.5 541.5,-895.5 505.5,-895.5"/>
<text text-anchor="start" x="512.5" y="-907.3" font-family="Helvetica,sans-Serif" font-weight="bold" font-size="14.00">FK</text>
<polygon fill="#eeedfe" stroke="transparent" points="541.5,-895.5 541.5,-924.5 657.5,-924.5 657.5,-895.5 541.5,-895.5"/>
<polygon fill="none" stroke="black" points="541.5,-895.5 541.5,-924.5 657.5,-924.5 657.5,-895.5 541.5,-895.5"/>
<text text-anchor="start" x="548.5" y="-906.3" font-family="Helvetica,sans-Serif" font-size="14.00">category_id</text>
<polygon fill="#eeedfe" stroke="transparent" points="657.5,-895.5 657.5,-924.5 853.5,-924.5 853.5,-895.5 657.5,-895.5"/>
<polygon fill="none" stroke="black" points="657.5,-895.5 657.5,-924.5 853.5,-924.5 853.5,-895.5 657.5,-895.5"/>
<text text-anchor="start" x="664.5" y="-906.3" font-family="Helvetica,sans-Serif" font-size="14.00" fill="#3c3489">integer NOT NULL</text>
<polygon fill="none" stroke="black" points="505.5,-866.5 505.5,-895.5 541.5,-895.5 541.5,-866.5 505.5,-866.5"/>
<polygon fill="none" stroke="black" points="541.5,-866.5 541.5,-895.5 657.5,-895.5 657.5,-866.5 541.5,-866.5"/>
<text text-anchor="start" x="548.5" y="-877.3" font-family="Helvetica,sans-Serif" font-size="14.00">name</text>
<polygon fill="none" stroke="black" points="657.5,-866.5 657.5,-895.5 853.5,-895.5 853.5,-866.5 657.5,-866.5"/>
<text text-anchor="start" x="664.5" y="-877.3" font-family="Helvetica,sans-Serif" font-size="14.00" fill="#5f5e5a">text NOT NULL</text>
<polygon fill="none" stroke="black" points="505.5,-837.5 505.5,-866.5 541.5,-866.5 541.5,-837.5 505.5,-837.5"/>
<text text-anchor="start" x="512.5" y="-849.3" font-family="Helvetica,sans-Serif" font-weight="bold" font-size="14.00">UK</text>
<polygon fill="none" stroke="black" points="541.5,-837.5 541.5,-866.5 657.5,-866.5 657.5,-837.5 541.5,-837.5"/>
<text text-anchor="start" x="548.5" y="-848.3" font-family="Helvetica,sans-Serif" font-size="14.00">slug</text>
<polygon fill="none" stroke="black" points="657.5,-837.5 657.5,-866.5 853.5,-866.5 853.5,-837.5 657.5,-837.5"/>
<text text-anchor="start" x="664.5" y="-848.3" font-family="Helvetica,sans-Serif" font-size="14.00" fill="#5f5e5a">text NOT NULL</text>
<polygon fill="none" stroke="black" points="505.5,-808.5 505.5,-837.5 541.5,-837.5 541.5,-808.5 505.5,-808.5"/>
<polygon fill="none" stroke="black" points="541.5,-808.5 541.5,-837.5 657.5,-837.5 657.5,-808.5 541.5,-808.5"/>
<text text-anchor="start" x="548.5" y="-819.3" font-family="Helvetica,sans-Serif" font-size="14.00">description</text>
<polygon fill="none" stroke="black" points="657.5,-808.5 657.5,-837.5 853.5,-837.5 853.5,-808.5 657.5,-808.5"/>
<text text-anchor="start" x="664.5" y="-819.3" font-family="Helvetica,sans-Serif" font-size="14.00" fill="#5f5e5a">text NULL</text>
<polygon fill="none" stroke="black" points="505.5,-779.5 505.5,-808.5 541.5,-808.5 541.5,-779.5 505.5,-779.5"/>
<polygon fill="none" stroke="black" points="541.5,-779.5 541.5,-808.5 657.5,-808.5 657.5,-779.5 541.5,-779.5"/>
<text text-anchor="start" x="548.5" y="-790.3" font-family="Helvetica,sans-Serif" font-size="14.00">price</text>
<polygon fill="none" stroke="black" points="657.5,-779.5 657.5,-808.5 853.5,-808.5 853.5,-779.5 657.5,-779.5"/>
<text text-anchor="start" x="664.5" y="-790.3" font-family="Helvetica,sans-Serif" font-size="14.00" fill="#5f5e5a">numeric(10,2) CHECK &gt; 0</text>
<polygon fill="none" stroke="black" points="505.5,-750.5 505.5,-779.5 541.5,-779.5 541.5,-750.5 505.5,-750.5"/>
<polygon fill="none" stroke="black" points="541.5,-750.5 541.5,-779.5 657.5,-779.5 657.5,-750.5 541.5,-750.5"/>
<text text-anchor="start" x="548.5" y="-761.3" font-family="Helvetica,sans-Serif" font-size="14.00">discount_price</text>
<polygon fill="none" stroke="black" points="657.5,-750.5 657.5,-779.5 853.5,-779.5 853.5,-750.5 657.5,-750.5"/>
<text text-anchor="start" x="664.5" y="-761.3" font-family="Helvetica,sans-Serif" font-size="14.00" fill="#5f5e5a">numeric(10,2) NULL</text>
<polygon fill="none" stroke="black" points="505.5,-721.5 505.5,-750.5 541.5,-750.5 541.5,-721.5 505.5,-721.5"/>
<text text-anchor="start" x="512.5" y="-733.3" font-family="Helvetica,sans-Serif" font-weight="bold" font-size="14.00">UK</text>
<polygon fill="none" stroke="black" points="541.5,-721.5 541.5,-750.5 657.5,-750.5 657.5,-721.5 541.5,-721.5"/>
<text text-anchor="start" x="548.5" y="-732.3" font-family="Helvetica,sans-Serif" font-size="14.00">sku</text>
<polygon fill="none" stroke="black" points="657.5,-721.5 657.5,-750.5 853.5,-750.5 853.5,-721.5 657.5,-721.5"/>
<text text-anchor="start" x="664.5" y="-732.3" font-family="Helvetica,sans-Serif" font-size="14.00" fill="#5f5e5a">text NULL</text>
<polygon fill="none" stroke="black" points="505.5,-692.5 505.5,-721.5 541.5,-721.5 541.5,-692.5 505.5,-692.5"/>
<polygon fill="none" stroke="black" points="541.5,-692.5 541.5,-721.5 657.5,-721.5 657.5,-692.5 541.5,-692.5"/>
<text text-anchor="start" x="548.5" y="-703.3" font-family="Helvetica,sans-Serif" font-size="14.00">stock_quantity</text>
<polygon fill="none" stroke="black" points="657.5,-692.5 657.5,-721.5 853.5,-721.5 853.5,-692.5 657.5,-692.5"/>
<text text-anchor="start" x="664.5" y="-703.3" font-family="Helvetica,sans-Serif" font-size="14.00" fill="#5f5e5a">integer CHECK &gt;= 0</text>
<polygon fill="none" stroke="black" points="505.5,-663.5 505.5,-692.5 541.5,-692.5 541.5,-663.5 505.5,-663.5"/>
<polygon fill="none" stroke="black" points="541.5,-663.5 541.5,-692.5 657.5,-692.5 657.5,-663.5 541.5,-663.5"/>
<text text-anchor="start" x="548.5" y="-674.3" font-family="Helvetica,sans-Serif" font-size="14.00">is_active</text>
<polygon fill="none" stroke="black" points="657.5,-663.5 657.5,-692.5 853.5,-692.5 853.5,-663.5 657.5,-663.5"/>
<text text-anchor="start" x="664.5" y="-674.3" font-family="Helvetica,sans-Serif" font-size="14.00" fill="#5f5e5a">boolean DEFAULT true</text>
<polygon fill="none" stroke="black" points="505.5,-634.5 505.5,-663.5 541.5,-663.5 541.5,-634.5 505.5,-634.5"/>
<polygon fill="none" stroke="black" points="541.5,-634.5 541.5,-663.5 657.5,-663.5 657.5,-634.5 541.5,-634.5"/>
<text text-anchor="start" x="548.5" y="-645.3" font-family="Helvetica,sans-Serif" font-size="14.00">created_at</text>
<polygon fill="none" stroke="black" points="657.5,-634.5 657.5,-663.5 853.5,-663.5 853.5,-634.5 657.5,-634.5"/>
<text text-anchor="start" x="664.5" y="-645.3" font-family="Helvetica,sans-Serif" font-size="14.00" fill="#5f5e5a">timestamptz</text>
<polygon fill="none" stroke="black" points="505.5,-605.5 505.5,-634.5 541.5,-634.5 541.5,-605.5 505.5,-605.5"/>
<polygon fill="none" stroke="black" points="541.5,-605.5 541.5,-634.5 657.5,-634.5 657.5,-605.5 541.5,-605.5"/>
<text text-anchor="start" x="548.5" y="-616.3" font-family="Helvetica,sans-Serif" font-size="14.00">updated_at</text>
<polygon fill="none" stroke="black" points="657.5,-605.5 657.5,-634.5 853.5,-634.5 853.5,-605.5 657.5,-605.5"/>
<text text-anchor="start" x="664.5" y="-616.3" font-family="Helvetica,sans-Serif" font-size="14.00" fill="#5f5e5a">timestamptz</text>
</g>
<!-- categories&#45;&gt;products -->
<g id="edge1" class="edge">
<title>categories:id&#45;&gt;products:cat</title>
<path fill="none" stroke="#5f5e5a" d="M142.85,-910.5C235.01,-910.5 428.41,-910.5 531.1,-910.5"/>
<polygon fill="#5f5e5a" stroke="#5f5e5a" points="138.84,-915.5 138.84,-905.5 140.84,-905.5 140.84,-915.5 138.84,-915.5"/>
<polyline fill="none" stroke="#5f5e5a" points="137.84,-910.5 142.84,-910.5 "/>
<polygon fill="#5f5e5a" stroke="#5f5e5a" points="531.35,-910.5 541.35,-915 536.35,-910.5 541.35,-910.5 541.35,-910.5 541.35,-910.5 536.35,-910.5 541.35,-906 531.35,-910.5 531.35,-910.5"/>
<text text-anchor="middle" x="391" y="-913.5" font-family="Helvetica,sans-Serif" font-size="10.00"> &#160;contains &#160;</text>
</g>
<!-- product_images -->
<g id="node3" class="node">
<title>product_images</title>
<polygon fill="#d4537e" stroke="transparent" points="1096.5,-982.5 1096.5,-1011.5 1391.5,-1011.5 1391.5,-982.5 1096.5,-982.5"/>
<polygon fill="none" stroke="black" points="1096.5,-982.5 1096.5,-1011.5 1391.5,-1011.5 1391.5,-982.5 1096.5,-982.5"/>
<text text-anchor="start" x="1182" y="-994.3" font-family="Helvetica,sans-Serif" font-weight="bold" font-size="14.00" fill="white">product_images</text>
<polygon fill="#fbeaf0" stroke="transparent" points="1096.5,-953.5 1096.5,-982.5 1132.5,-982.5 1132.5,-953.5 1096.5,-953.5"/>
<polygon fill="none" stroke="black" points="1096.5,-953.5 1096.5,-982.5 1132.5,-982.5 1132.5,-953.5 1096.5,-953.5"/>
<text text-anchor="start" x="1103.5" y="-965.3" font-family="Helvetica,sans-Serif" font-weight="bold" font-size="14.00">PK</text>
<polygon fill="#fbeaf0" stroke="transparent" points="1132.5,-953.5 1132.5,-982.5 1219.5,-982.5 1219.5,-953.5 1132.5,-953.5"/>
<polygon fill="none" stroke="black" points="1132.5,-953.5 1132.5,-982.5 1219.5,-982.5 1219.5,-953.5 1132.5,-953.5"/>
<text text-anchor="start" x="1139.5" y="-964.3" font-family="Helvetica,sans-Serif" font-size="14.00">id</text>
<polygon fill="#fbeaf0" stroke="transparent" points="1219.5,-953.5 1219.5,-982.5 1391.5,-982.5 1391.5,-953.5 1219.5,-953.5"/>
<polygon fill="none" stroke="black" points="1219.5,-953.5 1219.5,-982.5 1391.5,-982.5 1391.5,-953.5 1219.5,-953.5"/>
<text text-anchor="start" x="1226.5" y="-964.3" font-family="Helvetica,sans-Serif" font-size="14.00" fill="#72243e">integer</text>
<polygon fill="#fbeaf0" stroke="transparent" points="1096.5,-924.5 1096.5,-953.5 1132.5,-953.5 1132.5,-924.5 1096.5,-924.5"/>
<polygon fill="none" stroke="black" points="1096.5,-924.5 1096.5,-953.5 1132.5,-953.5 1132.5,-924.5 1096.5,-924.5"/>
<text text-anchor="start" x="1103.5" y="-936.3" font-family="Helvetica,sans-Serif" font-weight="bold" font-size="14.00">FK</text>
<polygon fill="#fbeaf0" stroke="transparent" points="1132.5,-924.5 1132.5,-953.5 1219.5,-953.5 1219.5,-924.5 1132.5,-924.5"/>
<polygon fill="none" stroke="black" points="1132.5,-924.5 1132.5,-953.5 1219.5,-953.5 1219.5,-924.5 1132.5,-924.5"/>
<text text-anchor="start" x="1139.5" y="-935.3" font-family="Helvetica,sans-Serif" font-size="14.00">product_id</text>
<polygon fill="#fbeaf0" stroke="transparent" points="1219.5,-924.5 1219.5,-953.5 1391.5,-953.5 1391.5,-924.5 1219.5,-924.5"/>
<polygon fill="none" stroke="black" points="1219.5,-924.5 1219.5,-953.5 1391.5,-953.5 1391.5,-924.5 1219.5,-924.5"/>
<text text-anchor="start" x="1226.5" y="-935.3" font-family="Helvetica,sans-Serif" font-size="14.00" fill="#72243e">integer NOT NULL</text>
<polygon fill="none" stroke="black" points="1096.5,-895.5 1096.5,-924.5 1132.5,-924.5 1132.5,-895.5 1096.5,-895.5"/>
<polygon fill="none" stroke="black" points="1132.5,-895.5 1132.5,-924.5 1219.5,-924.5 1219.5,-895.5 1132.5,-895.5"/>
<text text-anchor="start" x="1139.5" y="-906.3" font-family="Helvetica,sans-Serif" font-size="14.00">url</text>
<polygon fill="none" stroke="black" points="1219.5,-895.5 1219.5,-924.5 1391.5,-924.5 1391.5,-895.5 1219.5,-895.5"/>
<text text-anchor="start" x="1226.5" y="-906.3" font-family="Helvetica,sans-Serif" font-size="14.00" fill="#5f5e5a">text NOT NULL</text>
<polygon fill="none" stroke="black" points="1096.5,-866.5 1096.5,-895.5 1132.5,-895.5 1132.5,-866.5 1096.5,-866.5"/>
<polygon fill="none" stroke="black" points="1132.5,-866.5 1132.5,-895.5 1219.5,-895.5 1219.5,-866.5 1132.5,-866.5"/>
<text text-anchor="start" x="1139.5" y="-877.3" font-family="Helvetica,sans-Serif" font-size="14.00">alt_text</text>
<polygon fill="none" stroke="black" points="1219.5,-866.5 1219.5,-895.5 1391.5,-895.5 1391.5,-866.5 1219.5,-866.5"/>
<text text-anchor="start" x="1226.5" y="-877.3" font-family="Helvetica,sans-Serif" font-size="14.00" fill="#5f5e5a">text NULL</text>
<polygon fill="none" stroke="black" points="1096.5,-837.5 1096.5,-866.5 1132.5,-866.5 1132.5,-837.5 1096.5,-837.5"/>
<polygon fill="none" stroke="black" points="1132.5,-837.5 1132.5,-866.5 1219.5,-866.5 1219.5,-837.5 1132.5,-837.5"/>
<text text-anchor="start" x="1139.5" y="-848.3" font-family="Helvetica,sans-Serif" font-size="14.00">sort_order</text>
<polygon fill="none" stroke="black" points="1219.5,-837.5 1219.5,-866.5 1391.5,-866.5 1391.5,-837.5 1219.5,-837.5"/>
<text text-anchor="start" x="1226.5" y="-848.3" font-family="Helvetica,sans-Serif" font-size="14.00" fill="#5f5e5a">integer DEFAULT 0</text>
<polygon fill="none" stroke="black" points="1096.5,-808.5 1096.5,-837.5 1132.5,-837.5 1132.5,-808.5 1096.5,-808.5"/>
<polygon fill="none" stroke="black" points="1132.5,-808.5 1132.5,-837.5 1219.5,-837.5 1219.5,-808.5 1132.5,-808.5"/>
<text text-anchor="start" x="1139.5" y="-819.3" font-family="Helvetica,sans-Serif" font-size="14.00">is_primary</text>
<polygon fill="none" stroke="black" points="1219.5,-808.5 1219.5,-837.5 1391.5,-837.5 1391.5,-808.5 1219.5,-808.5"/>
<text text-anchor="start" x="1226.5" y="-819.3" font-family="Helvetica,sans-Serif" font-size="14.00" fill="#5f5e5a">boolean DEFAULT false</text>
<polygon fill="none" stroke="black" points="1096.5,-779.5 1096.5,-808.5 1132.5,-808.5 1132.5,-779.5 1096.5,-779.5"/>
<polygon fill="none" stroke="black" points="1132.5,-779.5 1132.5,-808.5 1219.5,-808.5 1219.5,-779.5 1132.5,-779.5"/>
<text text-anchor="start" x="1139.5" y="-790.3" font-family="Helvetica,sans-Serif" font-size="14.00">created_at</text>
<polygon fill="none" stroke="black" points="1219.5,-779.5 1219.5,-808.5 1391.5,-808.5 1391.5,-779.5 1219.5,-779.5"/>
<text text-anchor="start" x="1226.5" y="-790.3" font-family="Helvetica,sans-Serif" font-size="14.00" fill="#5f5e5a">timestamptz</text>
</g>
<!-- products&#45;&gt;product_images -->
<g id="edge2" class="edge">
<title>products:id&#45;&gt;product_images:prod</title>
<path fill="none" stroke="#5f5e5a" d="M662.79,-939.5C776.64,-939.5 1016.33,-939.5 1122.26,-939.5"/>
<polygon fill="#5f5e5a" stroke="#5f5e5a" points="658.64,-944.5 658.64,-934.5 660.64,-934.5 660.64,-944.5 658.64,-944.5"/>
<polyline fill="none" stroke="#5f5e5a" points="657.64,-939.5 662.64,-939.5 "/>
<polygon fill="#5f5e5a" stroke="#5f5e5a" points="1122.39,-939.5 1132.39,-944 1127.39,-939.5 1132.39,-939.5 1132.39,-939.5 1132.39,-939.5 1127.39,-939.5 1132.39,-935 1122.39,-939.5 1122.39,-939.5"/>
<text text-anchor="middle" x="975" y="-942.5" font-family="Helvetica,sans-Serif" font-size="10.00"> &#160;has &#160;</text>
</g>
<!-- order_items -->
<g id="node5" class="node">
<title>order_items</title>
<polygon fill="#d85a30" stroke="transparent" points="1068.5,-539.5 1068.5,-568.5 1419.5,-568.5 1419.5,-539.5 1068.5,-539.5"/>
<polygon fill="none" stroke="black" points="1068.5,-539.5 1068.5,-568.5 1419.5,-568.5 1419.5,-539.5 1068.5,-539.5"/>
<text text-anchor="start" x="1197" y="-551.3" font-family="Helvetica,sans-Serif" font-weight="bold" font-size="14.00" fill="white">order_items</text>
<polygon fill="#faece7" stroke="transparent" points="1068.5,-510.5 1068.5,-539.5 1104.5,-539.5 1104.5,-510.5 1068.5,-510.5"/>
<polygon fill="none" stroke="black" points="1068.5,-510.5 1068.5,-539.5 1104.5,-539.5 1104.5,-510.5 1068.5,-510.5"/>
<text text-anchor="start" x="1075.5" y="-522.3" font-family="Helvetica,sans-Serif" font-weight="bold" font-size="14.00">PK</text>
<polygon fill="#faece7" stroke="transparent" points="1104.5,-510.5 1104.5,-539.5 1218.5,-539.5 1218.5,-510.5 1104.5,-510.5"/>
<polygon fill="none" stroke="black" points="1104.5,-510.5 1104.5,-539.5 1218.5,-539.5 1218.5,-510.5 1104.5,-510.5"/>
<text text-anchor="start" x="1111.5" y="-521.3" font-family="Helvetica,sans-Serif" font-size="14.00">id</text>
<polygon fill="#faece7" stroke="transparent" points="1218.5,-510.5 1218.5,-539.5 1419.5,-539.5 1419.5,-510.5 1218.5,-510.5"/>
<polygon fill="none" stroke="black" points="1218.5,-510.5 1218.5,-539.5 1419.5,-539.5 1419.5,-510.5 1218.5,-510.5"/>
<text text-anchor="start" x="1225.5" y="-521.3" font-family="Helvetica,sans-Serif" font-size="14.00" fill="#712b13">integer</text>
<polygon fill="#faece7" stroke="transparent" points="1068.5,-481.5 1068.5,-510.5 1104.5,-510.5 1104.5,-481.5 1068.5,-481.5"/>
<polygon fill="none" stroke="black" points="1068.5,-481.5 1068.5,-510.5 1104.5,-510.5 1104.5,-481.5 1068.5,-481.5"/>
<text text-anchor="start" x="1075.5" y="-493.3" font-family="Helvetica,sans-Serif" font-weight="bold" font-size="14.00">FK</text>
<polygon fill="#faece7" stroke="transparent" points="1104.5,-481.5 1104.5,-510.5 1218.5,-510.5 1218.5,-481.5 1104.5,-481.5"/>
<polygon fill="none" stroke="black" points="1104.5,-481.5 1104.5,-510.5 1218.5,-510.5 1218.5,-481.5 1104.5,-481.5"/>
<text text-anchor="start" x="1111.5" y="-492.3" font-family="Helvetica,sans-Serif" font-size="14.00">order_id</text>
<polygon fill="#faece7" stroke="transparent" points="1218.5,-481.5 1218.5,-510.5 1419.5,-510.5 1419.5,-481.5 1218.5,-481.5"/>
<polygon fill="none" stroke="black" points="1218.5,-481.5 1218.5,-510.5 1419.5,-510.5 1419.5,-481.5 1218.5,-481.5"/>
<text text-anchor="start" x="1225.5" y="-492.3" font-family="Helvetica,sans-Serif" font-size="14.00" fill="#712b13">integer NOT NULL</text>
<polygon fill="#faece7" stroke="transparent" points="1068.5,-452.5 1068.5,-481.5 1104.5,-481.5 1104.5,-452.5 1068.5,-452.5"/>
<polygon fill="none" stroke="black" points="1068.5,-452.5 1068.5,-481.5 1104.5,-481.5 1104.5,-452.5 1068.5,-452.5"/>
<text text-anchor="start" x="1075.5" y="-464.3" font-family="Helvetica,sans-Serif" font-weight="bold" font-size="14.00">FK</text>
<polygon fill="#faece7" stroke="transparent" points="1104.5,-452.5 1104.5,-481.5 1218.5,-481.5 1218.5,-452.5 1104.5,-452.5"/>
<polygon fill="none" stroke="black" points="1104.5,-452.5 1104.5,-481.5 1218.5,-481.5 1218.5,-452.5 1104.5,-452.5"/>
<text text-anchor="start" x="1111.5" y="-463.3" font-family="Helvetica,sans-Serif" font-size="14.00">product_id</text>
<polygon fill="#faece7" stroke="transparent" points="1218.5,-452.5 1218.5,-481.5 1419.5,-481.5 1419.5,-452.5 1218.5,-452.5"/>
<polygon fill="none" stroke="black" points="1218.5,-452.5 1218.5,-481.5 1419.5,-481.5 1419.5,-452.5 1218.5,-452.5"/>
<text text-anchor="start" x="1225.5" y="-463.3" font-family="Helvetica,sans-Serif" font-size="14.00" fill="#712b13">integer NOT NULL</text>
<polygon fill="none" stroke="black" points="1068.5,-423.5 1068.5,-452.5 1104.5,-452.5 1104.5,-423.5 1068.5,-423.5"/>
<polygon fill="none" stroke="black" points="1104.5,-423.5 1104.5,-452.5 1218.5,-452.5 1218.5,-423.5 1104.5,-423.5"/>
<text text-anchor="start" x="1111.5" y="-434.3" font-family="Helvetica,sans-Serif" font-size="14.00">product_name</text>
<polygon fill="none" stroke="black" points="1218.5,-423.5 1218.5,-452.5 1419.5,-452.5 1419.5,-423.5 1218.5,-423.5"/>
<text text-anchor="start" x="1225.5" y="-434.3" font-family="Helvetica,sans-Serif" font-size="14.00" fill="#993c1d">text — snapshot</text>
<polygon fill="none" stroke="black" points="1068.5,-394.5 1068.5,-423.5 1104.5,-423.5 1104.5,-394.5 1068.5,-394.5"/>
<polygon fill="none" stroke="black" points="1104.5,-394.5 1104.5,-423.5 1218.5,-423.5 1218.5,-394.5 1104.5,-394.5"/>
<text text-anchor="start" x="1111.5" y="-405.3" font-family="Helvetica,sans-Serif" font-size="14.00">product_sku</text>
<polygon fill="none" stroke="black" points="1218.5,-394.5 1218.5,-423.5 1419.5,-423.5 1419.5,-394.5 1218.5,-394.5"/>
<text text-anchor="start" x="1225.5" y="-405.3" font-family="Helvetica,sans-Serif" font-size="14.00" fill="#993c1d">text — snapshot</text>
<polygon fill="none" stroke="black" points="1068.5,-365.5 1068.5,-394.5 1104.5,-394.5 1104.5,-365.5 1068.5,-365.5"/>
<polygon fill="none" stroke="black" points="1104.5,-365.5 1104.5,-394.5 1218.5,-394.5 1218.5,-365.5 1104.5,-365.5"/>
<text text-anchor="start" x="1111.5" y="-376.3" font-family="Helvetica,sans-Serif" font-size="14.00">unit_price</text>
<polygon fill="none" stroke="black" points="1218.5,-365.5 1218.5,-394.5 1419.5,-394.5 1419.5,-365.5 1218.5,-365.5"/>
<text text-anchor="start" x="1225.5" y="-376.3" font-family="Helvetica,sans-Serif" font-size="14.00" fill="#993c1d">numeric(10,2) — snapshot</text>
<polygon fill="none" stroke="black" points="1068.5,-336.5 1068.5,-365.5 1104.5,-365.5 1104.5,-336.5 1068.5,-336.5"/>
<polygon fill="none" stroke="black" points="1104.5,-336.5 1104.5,-365.5 1218.5,-365.5 1218.5,-336.5 1104.5,-336.5"/>
<text text-anchor="start" x="1111.5" y="-347.3" font-family="Helvetica,sans-Serif" font-size="14.00">quantity</text>
<polygon fill="none" stroke="black" points="1218.5,-336.5 1218.5,-365.5 1419.5,-365.5 1419.5,-336.5 1218.5,-336.5"/>
<text text-anchor="start" x="1225.5" y="-347.3" font-family="Helvetica,sans-Serif" font-size="14.00" fill="#5f5e5a">integer CHECK &gt; 0</text>
<polygon fill="none" stroke="black" points="1068.5,-307.5 1068.5,-336.5 1104.5,-336.5 1104.5,-307.5 1068.5,-307.5"/>
<polygon fill="none" stroke="black" points="1104.5,-307.5 1104.5,-336.5 1218.5,-336.5 1218.5,-307.5 1104.5,-307.5"/>
<text text-anchor="start" x="1111.5" y="-318.3" font-family="Helvetica,sans-Serif" font-size="14.00">created_at</text>
<polygon fill="none" stroke="black" points="1218.5,-307.5 1218.5,-336.5 1419.5,-336.5 1419.5,-307.5 1218.5,-307.5"/>
<text text-anchor="start" x="1225.5" y="-318.3" font-family="Helvetica,sans-Serif" font-size="14.00" fill="#5f5e5a">timestamptz</text>
</g>
<!-- products&#45;&gt;order_items -->
<g id="edge3" class="edge">
<title>products:id&#45;&gt;order_items:prod</title>
<path fill="none" stroke="#5f5e5a" stroke-dasharray="5,2" d="M618.31,-920.46C666.18,-868.68 800.08,-719.83 890,-580.5 917.27,-538.25 898.91,-507.01 941,-479.5 985.94,-450.13 1047.77,-449.41 1094.36,-454.73"/>
<polygon fill="#5f5e5a" stroke="#5f5e5a" points="619.09,-926.97 611.76,-920.18 613.11,-918.71 620.45,-925.51 619.09,-926.97"/>
<polyline fill="none" stroke="#5f5e5a" points="614.74,-924.31 618.14,-920.64 "/>
<polygon fill="#5f5e5a" stroke="#5f5e5a" points="1094.44,-454.74 1103.8,-460.45 1099.4,-455.36 1104.36,-455.99 1104.36,-455.99 1104.36,-455.99 1099.4,-455.36 1104.92,-451.52 1094.44,-454.74 1094.44,-454.74"/>
<text text-anchor="middle" x="975" y="-482.5" font-family="Helvetica,sans-Serif" font-size="10.00"> &#160;appears in &#160;</text>
</g>
<!-- orders -->
<g id="node4" class="node">
<title>orders</title>
<polygon fill="#185fa5" stroke="transparent" points="477.5,-525.5 477.5,-554.5 882.5,-554.5 882.5,-525.5 477.5,-525.5"/>
<polygon fill="none" stroke="black" points="477.5,-525.5 477.5,-554.5 882.5,-554.5 882.5,-525.5 477.5,-525.5"/>
<text text-anchor="start" x="654" y="-537.3" font-family="Helvetica,sans-Serif" font-weight="bold" font-size="14.00" fill="white">orders</text>
<polygon fill="#e6f1fb" stroke="transparent" points="477.5,-496.5 477.5,-525.5 513.5,-525.5 513.5,-496.5 477.5,-496.5"/>
<polygon fill="none" stroke="black" points="477.5,-496.5 477.5,-525.5 513.5,-525.5 513.5,-496.5 477.5,-496.5"/>
<text text-anchor="start" x="484.5" y="-508.3" font-family="Helvetica,sans-Serif" font-weight="bold" font-size="14.00">PK</text>
<polygon fill="#e6f1fb" stroke="transparent" points="513.5,-496.5 513.5,-525.5 690.5,-525.5 690.5,-496.5 513.5,-496.5"/>
<polygon fill="none" stroke="black" points="513.5,-496.5 513.5,-525.5 690.5,-525.5 690.5,-496.5 513.5,-496.5"/>
<text text-anchor="start" x="520.5" y="-507.3" font-family="Helvetica,sans-Serif" font-size="14.00">id</text>
<polygon fill="#e6f1fb" stroke="transparent" points="690.5,-496.5 690.5,-525.5 882.5,-525.5 882.5,-496.5 690.5,-496.5"/>
<polygon fill="none" stroke="black" points="690.5,-496.5 690.5,-525.5 882.5,-525.5 882.5,-496.5 690.5,-496.5"/>
<text text-anchor="start" x="697.5" y="-507.3" font-family="Helvetica,sans-Serif" font-size="14.00" fill="#0c447c">integer</text>
<polygon fill="none" stroke="black" points="477.5,-467.5 477.5,-496.5 513.5,-496.5 513.5,-467.5 477.5,-467.5"/>
<text text-anchor="start" x="484.5" y="-479.3" font-family="Helvetica,sans-Serif" font-weight="bold" font-size="14.00">UK</text>
<polygon fill="none" stroke="black" points="513.5,-467.5 513.5,-496.5 690.5,-496.5 690.5,-467.5 513.5,-467.5"/>
<text text-anchor="start" x="520.5" y="-478.3" font-family="Helvetica,sans-Serif" font-size="14.00">order_number</text>
<polygon fill="none" stroke="black" points="690.5,-467.5 690.5,-496.5 882.5,-496.5 882.5,-467.5 690.5,-467.5"/>
<text text-anchor="start" x="697.5" y="-478.3" font-family="Helvetica,sans-Serif" font-size="14.00" fill="#5f5e5a">text NOT NULL</text>
<polygon fill="none" stroke="black" points="477.5,-438.5 477.5,-467.5 513.5,-467.5 513.5,-438.5 477.5,-438.5"/>
<polygon fill="none" stroke="black" points="513.5,-438.5 513.5,-467.5 690.5,-467.5 690.5,-438.5 513.5,-438.5"/>
<text text-anchor="start" x="520.5" y="-449.3" font-family="Helvetica,sans-Serif" font-size="14.00">customer_name</text>
<polygon fill="none" stroke="black" points="690.5,-438.5 690.5,-467.5 882.5,-467.5 882.5,-438.5 690.5,-438.5"/>
<text text-anchor="start" x="697.5" y="-449.3" font-family="Helvetica,sans-Serif" font-size="14.00" fill="#5f5e5a">text NOT NULL</text>
<polygon fill="none" stroke="black" points="477.5,-409.5 477.5,-438.5 513.5,-438.5 513.5,-409.5 477.5,-409.5"/>
<polygon fill="none" stroke="black" points="513.5,-409.5 513.5,-438.5 690.5,-438.5 690.5,-409.5 513.5,-409.5"/>
<text text-anchor="start" x="520.5" y="-420.3" font-family="Helvetica,sans-Serif" font-size="14.00">customer_email</text>
<polygon fill="none" stroke="black" points="690.5,-409.5 690.5,-438.5 882.5,-438.5 882.5,-409.5 690.5,-409.5"/>
<text text-anchor="start" x="697.5" y="-420.3" font-family="Helvetica,sans-Serif" font-size="14.00" fill="#5f5e5a">text NOT NULL</text>
<polygon fill="none" stroke="black" points="477.5,-380.5 477.5,-409.5 513.5,-409.5 513.5,-380.5 477.5,-380.5"/>
<polygon fill="none" stroke="black" points="513.5,-380.5 513.5,-409.5 690.5,-409.5 690.5,-380.5 513.5,-380.5"/>
<text text-anchor="start" x="520.5" y="-391.3" font-family="Helvetica,sans-Serif" font-size="14.00">customer_phone</text>
<polygon fill="none" stroke="black" points="690.5,-380.5 690.5,-409.5 882.5,-409.5 882.5,-380.5 690.5,-380.5"/>
<text text-anchor="start" x="697.5" y="-391.3" font-family="Helvetica,sans-Serif" font-size="14.00" fill="#5f5e5a">text NOT NULL</text>
<polygon fill="none" stroke="black" points="477.5,-351.5 477.5,-380.5 513.5,-380.5 513.5,-351.5 477.5,-351.5"/>
<polygon fill="none" stroke="black" points="513.5,-351.5 513.5,-380.5 690.5,-380.5 690.5,-351.5 513.5,-351.5"/>
<text text-anchor="start" x="520.5" y="-362.3" font-family="Helvetica,sans-Serif" font-size="14.00">shipping_address_line1</text>
<polygon fill="none" stroke="black" points="690.5,-351.5 690.5,-380.5 882.5,-380.5 882.5,-351.5 690.5,-351.5"/>
<text text-anchor="start" x="697.5" y="-362.3" font-family="Helvetica,sans-Serif" font-size="14.00" fill="#5f5e5a">text NOT NULL</text>
<polygon fill="none" stroke="black" points="477.5,-322.5 477.5,-351.5 513.5,-351.5 513.5,-322.5 477.5,-322.5"/>
<polygon fill="none" stroke="black" points="513.5,-322.5 513.5,-351.5 690.5,-351.5 690.5,-322.5 513.5,-322.5"/>
<text text-anchor="start" x="520.5" y="-333.3" font-family="Helvetica,sans-Serif" font-size="14.00">shipping_address_line2</text>
<polygon fill="none" stroke="black" points="690.5,-322.5 690.5,-351.5 882.5,-351.5 882.5,-322.5 690.5,-322.5"/>
<text text-anchor="start" x="697.5" y="-333.3" font-family="Helvetica,sans-Serif" font-size="14.00" fill="#5f5e5a">text NULL</text>
<polygon fill="none" stroke="black" points="477.5,-293.5 477.5,-322.5 513.5,-322.5 513.5,-293.5 477.5,-293.5"/>
<polygon fill="none" stroke="black" points="513.5,-293.5 513.5,-322.5 690.5,-322.5 690.5,-293.5 513.5,-293.5"/>
<text text-anchor="start" x="520.5" y="-304.3" font-family="Helvetica,sans-Serif" font-size="14.00">shipping_city</text>
<polygon fill="none" stroke="black" points="690.5,-293.5 690.5,-322.5 882.5,-322.5 882.5,-293.5 690.5,-293.5"/>
<text text-anchor="start" x="697.5" y="-304.3" font-family="Helvetica,sans-Serif" font-size="14.00" fill="#5f5e5a">text NOT NULL</text>
<polygon fill="none" stroke="black" points="477.5,-264.5 477.5,-293.5 513.5,-293.5 513.5,-264.5 477.5,-264.5"/>
<polygon fill="none" stroke="black" points="513.5,-264.5 513.5,-293.5 690.5,-293.5 690.5,-264.5 513.5,-264.5"/>
<text text-anchor="start" x="520.5" y="-275.3" font-family="Helvetica,sans-Serif" font-size="14.00">shipping_postal_code</text>
<polygon fill="none" stroke="black" points="690.5,-264.5 690.5,-293.5 882.5,-293.5 882.5,-264.5 690.5,-264.5"/>
<text text-anchor="start" x="697.5" y="-275.3" font-family="Helvetica,sans-Serif" font-size="14.00" fill="#5f5e5a">text NULL</text>
<polygon fill="none" stroke="black" points="477.5,-235.5 477.5,-264.5 513.5,-264.5 513.5,-235.5 477.5,-235.5"/>
<polygon fill="none" stroke="black" points="513.5,-235.5 513.5,-264.5 690.5,-264.5 690.5,-235.5 513.5,-235.5"/>
<text text-anchor="start" x="520.5" y="-246.3" font-family="Helvetica,sans-Serif" font-size="14.00">status</text>
<polygon fill="none" stroke="black" points="690.5,-235.5 690.5,-264.5 882.5,-264.5 882.5,-235.5 690.5,-235.5"/>
<text text-anchor="start" x="697.5" y="-246.3" font-family="Helvetica,sans-Serif" font-size="14.00" fill="#5f5e5a">text DEFAULT &#39;pending&#39;</text>
<polygon fill="none" stroke="black" points="477.5,-206.5 477.5,-235.5 513.5,-235.5 513.5,-206.5 477.5,-206.5"/>
<polygon fill="none" stroke="black" points="513.5,-206.5 513.5,-235.5 690.5,-235.5 690.5,-206.5 513.5,-206.5"/>
<text text-anchor="start" x="520.5" y="-217.3" font-family="Helvetica,sans-Serif" font-size="14.00">payment_method</text>
<polygon fill="none" stroke="black" points="690.5,-206.5 690.5,-235.5 882.5,-235.5 882.5,-206.5 690.5,-206.5"/>
<text text-anchor="start" x="697.5" y="-217.3" font-family="Helvetica,sans-Serif" font-size="14.00" fill="#5f5e5a">text CHECK IN (...)</text>
<polygon fill="none" stroke="black" points="477.5,-177.5 477.5,-206.5 513.5,-206.5 513.5,-177.5 477.5,-177.5"/>
<polygon fill="none" stroke="black" points="513.5,-177.5 513.5,-206.5 690.5,-206.5 690.5,-177.5 513.5,-177.5"/>
<text text-anchor="start" x="520.5" y="-188.3" font-family="Helvetica,sans-Serif" font-size="14.00">payment_reference</text>
<polygon fill="none" stroke="black" points="690.5,-177.5 690.5,-206.5 882.5,-206.5 882.5,-177.5 690.5,-177.5"/>
<text text-anchor="start" x="697.5" y="-188.3" font-family="Helvetica,sans-Serif" font-size="14.00" fill="#5f5e5a">text NULL</text>
<polygon fill="none" stroke="black" points="477.5,-148.5 477.5,-177.5 513.5,-177.5 513.5,-148.5 477.5,-148.5"/>
<polygon fill="none" stroke="black" points="513.5,-148.5 513.5,-177.5 690.5,-177.5 690.5,-148.5 513.5,-148.5"/>
<text text-anchor="start" x="520.5" y="-159.3" font-family="Helvetica,sans-Serif" font-size="14.00">subtotal</text>
<polygon fill="none" stroke="black" points="690.5,-148.5 690.5,-177.5 882.5,-177.5 882.5,-148.5 690.5,-148.5"/>
<text text-anchor="start" x="697.5" y="-159.3" font-family="Helvetica,sans-Serif" font-size="14.00" fill="#5f5e5a">numeric(10,2)</text>
<polygon fill="none" stroke="black" points="477.5,-119.5 477.5,-148.5 513.5,-148.5 513.5,-119.5 477.5,-119.5"/>
<polygon fill="none" stroke="black" points="513.5,-119.5 513.5,-148.5 690.5,-148.5 690.5,-119.5 513.5,-119.5"/>
<text text-anchor="start" x="520.5" y="-130.3" font-family="Helvetica,sans-Serif" font-size="14.00">shipping_fee</text>
<polygon fill="none" stroke="black" points="690.5,-119.5 690.5,-148.5 882.5,-148.5 882.5,-119.5 690.5,-119.5"/>
<text text-anchor="start" x="697.5" y="-130.3" font-family="Helvetica,sans-Serif" font-size="14.00" fill="#5f5e5a">numeric(10,2) DEFAULT 0</text>
<polygon fill="none" stroke="black" points="477.5,-90.5 477.5,-119.5 513.5,-119.5 513.5,-90.5 477.5,-90.5"/>
<polygon fill="none" stroke="black" points="513.5,-90.5 513.5,-119.5 690.5,-119.5 690.5,-90.5 513.5,-90.5"/>
<text text-anchor="start" x="520.5" y="-101.3" font-family="Helvetica,sans-Serif" font-size="14.00">total</text>
<polygon fill="none" stroke="black" points="690.5,-90.5 690.5,-119.5 882.5,-119.5 882.5,-90.5 690.5,-90.5"/>
<text text-anchor="start" x="697.5" y="-101.3" font-family="Helvetica,sans-Serif" font-size="14.00" fill="#5f5e5a">numeric(10,2)</text>
<polygon fill="none" stroke="black" points="477.5,-61.5 477.5,-90.5 513.5,-90.5 513.5,-61.5 477.5,-61.5"/>
<polygon fill="none" stroke="black" points="513.5,-61.5 513.5,-90.5 690.5,-90.5 690.5,-61.5 513.5,-61.5"/>
<text text-anchor="start" x="520.5" y="-72.3" font-family="Helvetica,sans-Serif" font-size="14.00">notes</text>
<polygon fill="none" stroke="black" points="690.5,-61.5 690.5,-90.5 882.5,-90.5 882.5,-61.5 690.5,-61.5"/>
<text text-anchor="start" x="697.5" y="-72.3" font-family="Helvetica,sans-Serif" font-size="14.00" fill="#5f5e5a">text NULL</text>
<polygon fill="none" stroke="black" points="477.5,-32.5 477.5,-61.5 513.5,-61.5 513.5,-32.5 477.5,-32.5"/>
<polygon fill="none" stroke="black" points="513.5,-32.5 513.5,-61.5 690.5,-61.5 690.5,-32.5 513.5,-32.5"/>
<text text-anchor="start" x="520.5" y="-43.3" font-family="Helvetica,sans-Serif" font-size="14.00">created_at</text>
<polygon fill="none" stroke="black" points="690.5,-32.5 690.5,-61.5 882.5,-61.5 882.5,-32.5 690.5,-32.5"/>
<text text-anchor="start" x="697.5" y="-43.3" font-family="Helvetica,sans-Serif" font-size="14.00" fill="#5f5e5a">timestamptz</text>
<polygon fill="none" stroke="black" points="477.5,-3.5 477.5,-32.5 513.5,-32.5 513.5,-3.5 477.5,-3.5"/>
<polygon fill="none" stroke="black" points="513.5,-3.5 513.5,-32.5 690.5,-32.5 690.5,-3.5 513.5,-3.5"/>
<text text-anchor="start" x="520.5" y="-14.3" font-family="Helvetica,sans-Serif" font-size="14.00">updated_at</text>
<polygon fill="none" stroke="black" points="690.5,-3.5 690.5,-32.5 882.5,-32.5 882.5,-3.5 690.5,-3.5"/>
<text text-anchor="start" x="697.5" y="-14.3" font-family="Helvetica,sans-Serif" font-size="14.00" fill="#5f5e5a">timestamptz</text>
</g>
<!-- orders&#45;&gt;order_items -->
<g id="edge4" class="edge">
<title>orders:id&#45;&gt;order_items:ord</title>
<path fill="none" stroke="#5f5e5a" d="M695.76,-508.99C808.41,-505.96 995.08,-500.95 1094.08,-498.29"/>
<polygon fill="#5f5e5a" stroke="#5f5e5a" points="691.74,-514.1 691.47,-504.11 693.47,-504.05 693.74,-514.05 691.74,-514.1"/>
<polyline fill="none" stroke="#5f5e5a" points="690.61,-509.13 695.61,-509 "/>
<polygon fill="#5f5e5a" stroke="#5f5e5a" points="1094.26,-498.28 1104.38,-502.51 1099.26,-498.15 1104.26,-498.01 1104.26,-498.01 1104.26,-498.01 1099.26,-498.15 1104.14,-493.51 1094.26,-498.28 1094.26,-498.28"/>
<text text-anchor="middle" x="975" y="-504.5" font-family="Helvetica,sans-Serif" font-size="10.00"> &#160;made up of &#160;</text>
</g>
</g>
</svg>
